<?xml version="1.0" ?><!DOCTYPE svg  PUBLIC '-//W3C//DTD SVG 1.1//EN'  'http://www.w3.org/Graphics/SVG/1.1/DTD/svg11.dtd'><svg enable-background="new 0 0 6144 6144" height="6144px" id="Слой_1" version="1.1" viewBox="0 0 6144 6144" width="6144px" xml:space="preserve" xmlns="http://www.w3.org/2000/svg" xmlns:xlink="http://www.w3.org/1999/xlink"><path d="M3069.362-2.638c-1696.619,0-3072,1375.381-3072,3072h6144C6141.362,1372.744,4765.981-2.638,3069.362-2.638  z" fill="#BFDCD9"/><path d="M6141.988,3073c0.001-1.213,0.012-2.424,0.012-3.638H-2c0,644.167,198.275,1242.021,537.114,1735.876  C197.796,4312.087,0.5,3715.584,0.5,3073H6141.988z" fill="#D6D7C2"/><path d="M3070,6141.362c1695.405,0,3070.023-1373.417,3071.988-3068.362H0.5  c0,642.584,197.296,1239.087,534.614,1732.239C1088.716,5612.109,2017.548,6141.362,3070,6141.362z" fill="#D6D7C2"/><g><g><path d="M3965.698,696.098c0,0-0.182-0.013-0.535-0.028c0.143,0.038,0.316,0.085,0.518,0.14L3965.698,696.098z" fill="#D6C877"/><path d="M3322.865,4907.103l0.001-0.007c-0.177-0.026-0.352-0.05-0.529-0.077    C3322.514,4907.046,3322.688,4907.076,3322.865,4907.103z" fill="#D6C877"/><path d="M3317.039,1693.192c-230.436,1026.531-285.599,2672.189-280.912,2835.937    c2.783,97.25,11.274,335.307,285.683,377.806l642.815-4210.886C3941.27,695.279,3540.701,696.834,3317.039,1693.192z" fill="#D6C877"/><path d="M3965.164,696.069c-0.148-0.007-0.329-0.014-0.539-0.021L3321.81,4906.935    c0.177,0.027,0.351,0.057,0.527,0.084c0.177,0.027,0.352,0.051,0.529,0.077L3965.681,696.21    C3965.48,696.154,3965.307,696.107,3965.164,696.069z" fill="#D6C877"/><path d="M4289.435,1841.634c86.334-1048.53-323.736-1145.536-323.736-1145.536l-0.017,0.112    c22.584,6.234,406.5,127.474,322.697,1145.263c-86.334,1048.529-524.679,2635.691-578.007,2790.583    c-31.672,91.991-112.909,316.35-387.505,275.04l-0.001,0.007c275.449,42.049,356.849-182.776,388.562-274.886    C3764.756,4477.325,4203.101,2890.163,4289.435,1841.634z" fill="#D6C877"/><path d="M3710.371,4632.056c53.329-154.892,491.673-1742.054,578.007-2790.583    c83.803-1017.789-300.113-1139.029-322.697-1145.263l-642.815,4210.887C3597.462,4948.406,3678.699,4724.047,3710.371,4632.056z" fill="#D6C877"/></g><path d="M3935.913,697.983l-641.748,4203.891c8.906,1.912,18.109,3.612,27.644,5.067l642.834-4211.005   C3964.643,695.936,3954.276,695.208,3935.913,697.983z" fill="#9C6345"/><path d="M3964.643,695.936l-642.834,4211.005c10.279,1.569,20.282,2.758,30.028,3.604L3993.47,707.404   C3975.567,698.522,3964.643,695.936,3964.643,695.936z" fill="#9C6345"/><path d="M3687.038,848.629l-597.617,3914.809c30.942,52.003,79.941,98.489,157.838,125.44l637.794-4177.996   C3834.434,728.509,3764.063,766.607,3687.038,848.629z" fill="#487B64"/><path d="M4188.27,925.145l-597.618,3914.809c-45.048,40.403-105.685,70.153-188.075,72.635l637.794-4177.996   C4083.426,766.519,4139.225,823.878,4188.27,925.145z" fill="#487B64"/></g><rect fill="#D6D7C2" height="435.638" width="1184" x="2872.5" y="4605.362"/><rect fill="#D6D7C2" height="368" width="1552.848" x="2248.145" y="5377"/><path d="M5358.236,5125.498l-1651.222-520.136h-784.433l-393.179,922.657  l787.245,607.406C4125.776,6071.804,4846.778,5694.7,5358.236,5125.498z" enable-background="new    " fill="#8D8C7F" opacity="0.8"/><g><g><path d="M2432.565,766.592c0,0-0.219,0.043-0.64,0.136c0.181-0.001,0.4,0,0.655,0.002L2432.565,766.592z" fill="#D66243"/><path d="M3004.088,5941.532c0.217-0.024,0.432-0.043,0.649-0.067l-0.001-0.009    C3004.52,5941.48,3004.306,5941.508,3004.088,5941.532z" fill="#111213"/><path d="M2575.827,2074.168L2431.283,766.874c-27.817,6.474-500.252,134.932-449.361,1381.97    c7.706,188.835,24.114,392.268,46.674,602.53l544.928-679.054L2575.827,2074.168z" fill="#D66243"/><path d="M2807.437,4168.904l-454.048,568.068c77.095,373.614,144.795,663.21,177.834,791.644h426.554    L2807.437,4168.904z" fill="#111213"/><path d="M2573.524,2072.32l-544.928,679.054c72.688,677.443,209.282,1425.813,324.793,1985.598l454.048-568.068    l-231.61-2094.736L2573.524,2072.32z" fill="#F2EAD4"/><path d="M2432.581,766.729c-0.255-0.002-0.474-0.002-0.655-0.002c-0.178,0.039-0.393,0.088-0.643,0.146    l144.544,1307.295l1.442,1.156L2432.581,766.729z" fill="#D66243"/><polygon fill="#111213" points="2808.591,4167.46 2807.437,4168.904 2957.776,5528.617 2959.09,5528.617   "/><polygon fill="#F8E297" points="2575.827,2074.168 2807.437,4168.904 2808.591,4167.46 2577.269,2075.325   "/><path d="M3376.596,5494.098c5.287-75.425,10.831-409.369,3.325-863.951l-1.317-1.08    c7.536,455.207,1.985,789.682-3.306,865.174c-0.72,10.263-1.564,21.813-2.725,34.375h1.284    C3375.025,5516,3375.873,5504.399,3376.596,5494.098z" fill="#D6C877"/><path d="M3372.315,5494.564c5.291-75.493,10.841-409.968,3.306-865.174l-567.438-464.828l-2.574,3.221    l150.463,1360.833h413.549C3370.766,5516.18,3371.602,5504.739,3372.315,5494.564z" fill="#111213"/><path d="M3173.605,2017.078c-222.789-1228.13-714.379-1249.912-743.013-1250.134L2575.28,2075.54l685.597,550.179    C3236.714,2411.851,3207.899,2206.122,3173.605,2017.078z" fill="#D66243"/><path d="M3260.877,2625.719L2575.28,2075.54l231.322,2092.136l2.575-3.221l567.438,464.828    C3367.192,4060.112,3337.309,3302.19,3260.877,2625.719z" fill="#F2EAD4"/></g></g><path d="M2418.525,3069.362" fill="#8D8C7F"/><path d="M10259.151,2191.924" fill="#8D8C7F"/></svg>